<svg width="375" height="282" viewBox="0 0 375 282" fill="none" xmlns="http://www.w3.org/2000/svg">
<path d="M253.772 122.428H117.244C112.449 122.428 108.562 126.315 108.562 131.109V203.869C108.562 208.663 112.449 212.55 117.244 212.55H253.772C258.566 212.55 262.453 208.663 262.453 203.869V131.109C262.453 126.315 258.566 122.428 253.772 122.428Z" fill="white"/>
<path d="M253.762 213.019H117.244C114.818 213.016 112.492 212.051 110.776 210.336C109.061 208.621 108.096 206.295 108.094 203.869V131.119C108.096 128.692 109.061 126.365 110.776 124.648C112.491 122.931 114.817 121.964 117.244 121.959H253.762C256.189 121.964 258.515 122.931 260.23 124.648C261.946 126.365 262.91 128.692 262.913 131.119V203.869C262.91 206.295 261.945 208.621 260.23 210.336C258.514 212.051 256.188 213.016 253.762 213.019V213.019ZM117.244 122.897C115.065 122.899 112.976 123.767 111.436 125.308C109.896 126.85 109.031 128.94 109.031 131.119V203.869C109.034 206.046 109.9 208.134 111.439 209.673C112.979 211.213 115.066 212.079 117.244 212.081H253.762C255.94 212.079 258.027 211.213 259.567 209.673C261.106 208.134 261.973 206.046 261.975 203.869V131.119C261.975 128.94 261.11 126.85 259.57 125.308C258.03 123.767 255.941 122.899 253.762 122.897H117.244Z" fill="#231F20"/>
<path d="M209.484 180.375H161.531C159.864 180.375 158.513 181.727 158.513 183.394V203.156C158.513 204.823 159.864 206.175 161.531 206.175H209.484C211.152 206.175 212.503 204.823 212.503 203.156V183.394C212.503 181.727 211.152 180.375 209.484 180.375Z" fill="white"/>
<path d="M209.484 206.644H161.522C160.599 206.641 159.714 206.273 159.062 205.619C158.41 204.965 158.044 204.08 158.044 203.156V183.384C158.044 182.462 158.41 181.577 159.062 180.925C159.715 180.273 160.599 179.906 161.522 179.906H209.484C210.407 179.906 211.292 180.273 211.944 180.925C212.596 181.577 212.963 182.462 212.963 183.384V203.156C212.963 204.08 212.596 204.965 211.944 205.619C211.292 206.273 210.408 206.641 209.484 206.644V206.644ZM161.522 180.844C160.848 180.844 160.202 181.111 159.725 181.588C159.249 182.064 158.981 182.711 158.981 183.384V203.156C158.98 203.491 159.045 203.822 159.172 204.131C159.299 204.441 159.486 204.722 159.722 204.959C159.958 205.196 160.239 205.384 160.547 205.512C160.856 205.64 161.187 205.706 161.522 205.706H209.484C209.819 205.706 210.15 205.64 210.459 205.512C210.768 205.384 211.048 205.196 211.284 204.959C211.52 204.722 211.707 204.441 211.834 204.131C211.961 203.822 212.026 203.491 212.025 203.156V183.384C212.025 182.711 211.757 182.064 211.281 181.588C210.804 181.111 210.158 180.844 209.484 180.844H161.522Z" fill="#D1D3D4"/>
<path d="M248.7 128.803H122.306C119.645 128.803 117.488 130.961 117.488 133.622V168.478C117.488 171.139 119.645 173.297 122.306 173.297H248.7C251.361 173.297 253.519 171.139 253.519 168.478V133.622C253.519 130.961 251.361 128.803 248.7 128.803Z" fill="white"/>
<path d="M248.7 173.766H122.306C120.905 173.763 119.561 173.205 118.57 172.214C117.579 171.223 117.021 169.88 117.019 168.478V133.631C117.019 132.228 117.576 130.882 118.567 129.889C119.558 128.896 120.903 128.337 122.306 128.334H248.7C250.103 128.337 251.448 128.896 252.439 129.889C253.431 130.882 253.988 132.228 253.988 133.631V168.478C253.985 169.88 253.427 171.223 252.436 172.214C251.445 173.205 250.102 173.763 248.7 173.766ZM122.306 129.272C121.152 129.274 120.045 129.735 119.23 130.552C118.414 131.369 117.956 132.477 117.956 133.631V168.478C117.956 169.632 118.415 170.738 119.23 171.554C120.046 172.37 121.153 172.828 122.306 172.828H248.7C249.854 172.828 250.96 172.37 251.776 171.554C252.592 170.738 253.05 169.632 253.05 168.478V133.631C253.05 132.477 252.592 131.369 251.777 130.552C250.961 129.735 249.855 129.274 248.7 129.272H122.306Z" fill="#D1D3D4"/>
<path d="M119.719 219.375H151.763C152.628 217.271 153.666 215.242 154.866 213.309C159.966 206.081 166.987 201.619 170.803 191.419C174.619 181.219 175.903 173.138 172.922 171.647C169.941 170.156 166.359 182.063 162.506 185.044C162.506 185.044 159.609 170.728 161.944 164.353C164.278 157.978 169.05 153.197 168.412 149.353C167.775 145.509 166.003 146.541 163.153 148.959C161.662 150.234 159.178 154.341 159.178 154.341C159.416 152.253 160.118 150.245 161.231 148.463C164.137 144.141 157.266 142.228 152.166 149.878C152.166 149.878 154.153 142.013 150.291 144.347C146.428 146.681 142.491 155.691 142.491 155.691C142.491 155.691 144.619 143.784 139.734 146.972C134.85 150.159 133.003 165.469 133.641 172.284C134.278 179.1 135.703 194.888 131.372 200.559C129.994 202.416 125.334 210 119.719 219.375Z" fill="white"/>
<path d="M151.763 219.844H119.719C119.636 219.843 119.554 219.821 119.482 219.78C119.41 219.739 119.349 219.68 119.306 219.609C119.262 219.537 119.239 219.455 119.239 219.37C119.239 219.286 119.262 219.203 119.306 219.131C125.869 208.284 129.769 201.937 131.034 200.269C135.309 194.644 133.791 178.444 133.219 172.331C132.544 165.15 134.419 149.925 139.509 146.597C140.569 145.912 141.459 145.791 142.153 146.259C143.55 147.197 143.578 150.441 143.362 152.906C144.862 150.019 147.469 145.566 150.084 143.972C151.022 143.391 151.791 143.306 152.353 143.728C153.291 144.422 153.234 146.4 153.019 147.984C155.484 145.087 158.081 144.122 159.863 144.234C160.332 144.231 160.793 144.354 161.199 144.59C161.604 144.826 161.939 145.166 162.169 145.575C162.368 146.104 162.423 146.676 162.327 147.233C162.232 147.79 161.989 148.312 161.625 148.744C160.971 149.745 160.472 150.838 160.144 151.987C160.914 150.767 161.819 149.638 162.844 148.622C164.812 146.934 166.172 146.034 167.288 146.447C168.094 146.737 168.591 147.637 168.872 149.259C169.275 151.687 167.709 154.369 165.9 157.481C164.526 159.705 163.349 162.045 162.384 164.475C160.434 169.791 162.253 180.984 162.816 184.097C164.426 182.136 165.801 179.993 166.912 177.712C169.125 173.653 171.047 170.147 173.137 171.15C177.497 173.334 173.259 186.15 171.262 191.503C168.722 198.272 164.784 202.566 160.95 206.709C158.906 208.853 156.999 211.123 155.241 213.506C154.057 215.413 153.032 217.413 152.175 219.487C152.152 219.582 152.1 219.668 152.026 219.732C151.952 219.796 151.86 219.835 151.763 219.844ZM120.544 218.906H151.481C152.328 216.87 153.341 214.908 154.509 213.037C156.294 210.621 158.232 208.323 160.312 206.156C164.063 202.069 167.934 197.85 170.409 191.25C174.375 180.675 175.275 173.325 172.763 172.069C171.478 171.412 169.509 175.022 167.775 178.2C166.209 181.078 164.578 184.059 162.844 185.409C162.782 185.46 162.707 185.493 162.628 185.505C162.549 185.516 162.468 185.506 162.394 185.475C162.319 185.449 162.252 185.405 162.199 185.346C162.147 185.286 162.11 185.215 162.094 185.137C161.981 184.547 159.197 170.616 161.55 164.194C162.532 161.711 163.734 159.32 165.141 157.05C166.856 154.097 168.337 151.547 167.953 149.447C167.747 148.219 167.409 147.478 167.016 147.319C166.294 147.066 164.897 148.134 163.5 149.334C162.103 150.534 159.656 154.566 159.628 154.603C159.574 154.694 159.491 154.763 159.392 154.801C159.293 154.838 159.185 154.841 159.084 154.809C158.984 154.775 158.898 154.709 158.839 154.621C158.779 154.533 158.75 154.428 158.756 154.322C159 152.152 159.73 150.066 160.894 148.219C161.159 147.92 161.344 147.557 161.429 147.167C161.514 146.776 161.498 146.37 161.381 145.987C161.22 145.73 160.995 145.518 160.726 145.375C160.458 145.232 160.157 145.162 159.853 145.172C158.119 145.041 155.166 146.297 152.606 150.159C152.545 150.251 152.453 150.318 152.347 150.348C152.241 150.379 152.128 150.371 152.027 150.326C151.926 150.281 151.844 150.202 151.796 150.103C151.748 150.004 151.736 149.891 151.763 149.784C152.222 147.909 152.559 145.012 151.838 144.478C151.547 144.262 150.947 144.572 150.619 144.769C146.953 147.009 143.044 155.812 143.006 155.897C142.961 156.002 142.878 156.086 142.775 156.135C142.671 156.183 142.553 156.192 142.444 156.159C142.335 156.123 142.242 156.05 142.182 155.952C142.122 155.854 142.099 155.738 142.116 155.625C142.631 152.756 142.959 147.891 141.675 147.037C141.328 146.803 140.737 146.916 140.072 147.384C135.525 150.347 133.509 165.281 134.194 172.247C134.831 179.034 136.322 194.953 131.831 200.841C130.575 202.444 126.787 208.519 120.544 218.906V218.906Z" fill="#231F20"/>
<path d="M209.166 163.238C207.188 161.822 204.919 166.641 206.353 173.728C207.788 180.816 216.272 195.834 222.788 202.069C224.503 203.7 227.081 209.175 229.969 216.356H261.103C253.434 201.863 246.881 189.534 246.319 188.747C244.894 186.759 243.403 174.178 243.797 166.781C244.118 160.015 243.621 153.235 242.316 146.588C241.313 142.191 239.728 140.747 237.525 140.747C235.322 140.747 236.419 149.475 236.419 149.475C235.425 144.272 232.022 138.272 229.022 137.672C226.022 137.072 229.688 148.125 229.688 148.125C228.488 144.928 221.944 134.7 219.038 136.322C218.1 136.847 215.728 137.541 219.525 144.544C223.322 151.547 223.275 155.353 223.275 155.353C215.372 141.853 209.213 142.313 207.263 145.144C205.313 147.975 210.375 149.681 214.35 155.691C218.325 161.7 216.047 176.888 216.047 176.888C211.716 174.009 211.153 164.653 209.166 163.238ZM236.841 151.584V151.481V151.584ZM236.775 151.247L236.681 150.741L236.775 151.247ZM236.625 150.441C236.625 150.291 236.569 150.131 236.531 149.953L236.625 150.441Z" fill="white"/>
<path d="M261.084 216.825H229.95C229.856 216.824 229.765 216.795 229.688 216.741C229.612 216.688 229.552 216.612 229.519 216.525C226.331 208.594 223.95 203.841 222.45 202.406C216.047 196.284 207.375 181.322 205.875 173.813C204.731 168.103 205.875 163.884 207.553 162.806C207.831 162.616 208.162 162.518 208.498 162.527C208.835 162.535 209.16 162.649 209.428 162.853C210.366 163.519 210.919 165.384 211.641 167.747C212.522 170.625 213.6 174.15 215.597 175.969C215.991 172.772 217.172 160.969 213.863 155.906C212.493 153.908 210.894 152.077 209.1 150.45C206.934 148.359 205.35 146.85 206.784 144.825C207.214 144.217 207.794 143.73 208.467 143.413C209.141 143.096 209.886 142.959 210.628 143.016C212.738 143.1 216.966 144.572 222.403 153.122C221.682 150.169 220.555 147.329 219.056 144.684C217.256 141.375 216.609 139.059 217.05 137.578C217.174 137.207 217.377 136.867 217.643 136.581C217.91 136.294 218.235 136.069 218.597 135.919L218.756 135.825C219.044 135.674 219.363 135.591 219.687 135.581C220.012 135.572 220.335 135.636 220.631 135.769C222.956 136.622 225.975 140.597 228.009 143.906C227.419 141.366 227.016 138.525 227.878 137.55C228.031 137.381 228.227 137.257 228.445 137.191C228.663 137.125 228.895 137.119 229.116 137.175C231.591 137.672 234.131 141.281 235.678 145.256C235.678 143.381 235.856 141.506 236.559 140.691C236.674 140.553 236.818 140.442 236.979 140.364C237.141 140.286 237.318 140.244 237.497 140.241C240.15 140.241 241.763 142.116 242.738 146.447C244.055 153.137 244.559 159.961 244.237 166.772C243.834 174.272 245.4 186.656 246.666 188.438C247.172 189.141 252.019 198.188 261.488 216.094C261.527 216.164 261.548 216.243 261.548 216.323C261.548 216.404 261.527 216.483 261.488 216.553C261.45 216.63 261.393 216.695 261.322 216.743C261.252 216.791 261.169 216.819 261.084 216.825V216.825ZM230.269 215.888H260.269C248.972 194.522 246.206 189.469 245.878 189.019C244.359 186.891 242.869 174.197 243.272 166.753C243.592 160.031 243.097 153.294 241.8 146.691C240.703 141.863 238.988 141.216 237.469 141.216C237.417 141.216 237.366 141.229 237.32 141.253C237.274 141.278 237.235 141.313 237.206 141.356C236.325 142.35 236.503 146.822 236.831 149.409V149.475C236.85 149.539 236.85 149.608 236.831 149.672C236.871 149.724 236.897 149.785 236.906 149.85L237 150.338C237.009 150.387 237.009 150.438 237 150.488C237.028 150.533 237.047 150.584 237.056 150.638L237.159 151.134C237.134 151.211 237.134 151.293 237.159 151.369V151.369H237.094L237.159 151.453C237.164 151.478 237.164 151.503 237.159 151.528C237.159 151.528 237.159 151.528 237.159 151.528C237.15 151.627 237.109 151.72 237.044 151.794C236.978 151.868 236.89 151.919 236.794 151.941C236.702 151.958 236.608 151.948 236.521 151.914C236.435 151.879 236.36 151.82 236.306 151.744V151.744C236.302 151.716 236.302 151.687 236.306 151.659C236.301 151.635 236.301 151.609 236.306 151.584V151.584V151.5C236.302 151.46 236.302 151.419 236.306 151.378C236.285 151.34 236.269 151.299 236.259 151.256L236.25 150.938V150.863C236.245 150.825 236.245 150.787 236.25 150.75C236.212 150.697 236.186 150.636 236.175 150.572L236.081 150.084C236.072 150.025 236.072 149.965 236.081 149.906C236.048 149.855 236.026 149.798 236.016 149.738V149.738C236.01 149.722 236.01 149.706 236.016 149.691C234.984 144.347 231.572 138.788 228.984 138.272C228.75 138.225 228.675 138.272 228.638 138.356C227.784 139.294 229.022 144.609 230.166 148.069C230.195 148.182 230.18 148.303 230.125 148.406C230.07 148.51 229.978 148.589 229.867 148.627C229.756 148.666 229.635 148.662 229.527 148.616C229.419 148.57 229.333 148.485 229.284 148.378C228.234 145.566 223.378 137.934 220.359 136.828C220.196 136.749 220.016 136.707 219.834 136.707C219.652 136.707 219.473 136.749 219.309 136.828L219.122 136.922C218.872 137.016 218.646 137.164 218.46 137.355C218.273 137.546 218.131 137.776 218.044 138.028C217.678 139.228 218.325 141.375 219.975 144.413C223.791 151.444 223.725 155.297 223.725 155.456C223.72 155.558 223.683 155.656 223.619 155.735C223.555 155.814 223.467 155.871 223.369 155.897C223.271 155.923 223.168 155.916 223.074 155.877C222.981 155.838 222.903 155.769 222.853 155.681C217.069 145.8 212.728 144.188 210.666 144.103C210.08 144.05 209.492 144.152 208.958 144.399C208.425 144.646 207.966 145.029 207.628 145.509C206.691 146.813 207.628 147.806 209.831 149.916C211.673 151.594 213.312 153.482 214.716 155.541C218.738 161.634 216.591 176.438 216.488 177.103C216.477 177.181 216.447 177.255 216.399 177.318C216.351 177.38 216.288 177.429 216.216 177.459C216.146 177.496 216.069 177.516 215.991 177.516C215.912 177.516 215.835 177.496 215.766 177.459C213.094 175.678 211.838 171.553 210.825 168.244C210.206 166.228 209.625 164.325 208.95 163.847C208.832 163.752 208.685 163.7 208.533 163.7C208.381 163.7 208.234 163.752 208.116 163.847C206.953 164.606 205.734 168.319 206.85 173.888C208.294 181.106 216.975 196.078 223.153 202.013C224.7 203.259 227.044 207.891 230.269 215.888Z" fill="#231F20"/>
<path d="M158.513 216.356C157.753 216.356 123.422 204.694 123.422 204.694C123.422 204.694 107.813 232.884 103.059 241.697L148.228 248.944L158.513 216.356Z" fill="#0892D0"/>
<path d="M257.119 202.678L220.978 209.419L230.794 244.416L276.666 240.937L257.119 202.678Z" fill="#0892D0"/>
<path d="M253.772 32.3062H117.244C112.449 32.3062 108.562 36.193 108.562 40.9875V113.747C108.562 118.541 112.449 122.428 117.244 122.428H253.772C258.566 122.428 262.453 118.541 262.453 113.747V40.9875C262.453 36.193 258.566 32.3062 253.772 32.3062Z" fill="white"/>
<path d="M253.762 122.897H117.244C114.818 122.894 112.492 121.93 110.776 120.214C109.061 118.499 108.096 116.173 108.094 113.747V40.9875C108.106 38.568 109.075 36.2518 110.79 34.5444C112.504 32.8371 114.824 31.8774 117.244 31.875H253.762C256.188 31.8775 258.514 32.8423 260.23 34.5577C261.945 36.2731 262.91 38.599 262.913 41.025V113.784C262.9 116.204 261.931 118.52 260.217 120.227C258.502 121.935 256.182 122.894 253.762 122.897V122.897ZM117.244 32.8125C115.066 32.815 112.979 33.681 111.439 35.2206C109.9 36.7602 109.034 38.8477 109.031 41.025V113.784C109.034 115.962 109.9 118.049 111.439 119.589C112.979 121.128 115.066 121.994 117.244 121.997H253.762C255.94 121.994 258.027 121.128 259.567 119.589C261.106 118.049 261.973 115.962 261.975 113.784V40.9875C261.963 38.8167 261.092 36.7388 259.554 35.2073C258.015 33.6758 255.933 32.8149 253.762 32.8125H117.244Z" fill="#231F20"/>
<path d="M256.069 39.9562H116.213V115.2H256.069V39.9562Z" fill="#0892D0"/>
<path d="M256.069 115.669H116.25C116.126 115.669 116.006 115.619 115.919 115.531C115.831 115.444 115.781 115.324 115.781 115.2V39.9562C115.781 39.8319 115.831 39.7127 115.919 39.6248C116.006 39.5369 116.126 39.4875 116.25 39.4875H256.069C256.193 39.4875 256.312 39.5369 256.4 39.6248C256.488 39.7127 256.538 39.8319 256.538 39.9562V115.2C256.538 115.324 256.488 115.444 256.4 115.531C256.312 115.619 256.193 115.669 256.069 115.669ZM116.681 114.731H255.6V40.425H116.681V114.731Z" fill="#231F20"/>
<path d="M256.069 49.5H116.25C116.126 49.5 116.006 49.4506 115.919 49.3627C115.831 49.2748 115.781 49.1556 115.781 49.0312C115.781 48.9069 115.831 48.7877 115.919 48.6998C116.006 48.6119 116.126 48.5625 116.25 48.5625H256.069C256.193 48.5625 256.312 48.6119 256.4 48.6998C256.488 48.7877 256.538 48.9069 256.538 49.0312C256.538 49.1556 256.488 49.2748 256.4 49.3627C256.312 49.4506 256.193 49.5 256.069 49.5Z" fill="#231F20"/>
<path d="M121.547 45.8906C122.401 45.8906 123.094 45.1981 123.094 44.3437C123.094 43.4894 122.401 42.7969 121.547 42.7969C120.693 42.7969 120 43.4894 120 44.3437C120 45.1981 120.693 45.8906 121.547 45.8906Z" fill="#231F20"/>
<path d="M121.547 46.3594C121.148 46.3594 120.759 46.2412 120.427 46.0197C120.096 45.7982 119.837 45.4834 119.685 45.1151C119.532 44.7468 119.492 44.3415 119.57 43.9505C119.648 43.5595 119.84 43.2004 120.122 42.9185C120.403 42.6366 120.763 42.4446 121.154 42.3669C121.545 42.2891 121.95 42.329 122.318 42.4816C122.687 42.6341 123.001 42.8925 123.223 43.2239C123.444 43.5554 123.563 43.9451 123.563 44.3438C123.564 44.6088 123.512 44.8715 123.412 45.1166C123.311 45.3617 123.162 45.5844 122.975 45.7718C122.787 45.9592 122.565 46.1076 122.32 46.2085C122.075 46.3093 121.812 46.3606 121.547 46.3594V46.3594ZM121.547 43.275C121.333 43.275 121.124 43.3385 120.947 43.4574C120.769 43.5763 120.631 43.7452 120.55 43.9427C120.469 44.1403 120.448 44.3575 120.49 44.5669C120.533 44.7763 120.636 44.9684 120.788 45.1188C120.94 45.2692 121.133 45.3711 121.342 45.4117C121.552 45.4522 121.769 45.4295 121.966 45.3465C122.163 45.2634 122.331 45.1238 122.448 44.9453C122.565 44.7667 122.627 44.5574 122.625 44.3438C122.625 44.2026 122.597 44.0629 122.543 43.9326C122.488 43.8023 122.409 43.6841 122.309 43.5847C122.208 43.4853 122.089 43.4068 121.959 43.3536C121.828 43.3005 121.688 43.2738 121.547 43.275V43.275Z" fill="#231F20"/>
<path d="M128.569 45.8906C129.423 45.8906 130.116 45.1981 130.116 44.3437C130.116 43.4894 129.423 42.7969 128.569 42.7969C127.714 42.7969 127.022 43.4894 127.022 44.3437C127.022 45.1981 127.714 45.8906 128.569 45.8906Z" fill="#231F20"/>
<path d="M128.569 46.3594C128.17 46.3612 127.779 46.2446 127.446 46.0243C127.114 45.8039 126.854 45.4898 126.7 45.1216C126.546 44.7535 126.505 44.3479 126.581 43.9563C126.658 43.5647 126.849 43.2047 127.131 42.9218C127.412 42.639 127.771 42.4461 128.163 42.3676C128.554 42.289 128.96 42.3284 129.329 42.4807C129.697 42.633 130.013 42.8913 130.235 43.223C130.457 43.5546 130.575 43.9447 130.575 44.3438C130.575 44.8767 130.364 45.388 129.988 45.7657C129.612 46.1434 129.102 46.3569 128.569 46.3594V46.3594ZM128.569 43.275C128.355 43.2732 128.145 43.335 127.966 43.4528C127.788 43.5705 127.648 43.7388 127.565 43.9362C127.482 44.1336 127.46 44.3511 127.502 44.5611C127.543 44.7711 127.646 44.9641 127.797 45.1154C127.948 45.2668 128.141 45.3697 128.351 45.411C128.561 45.4523 128.779 45.4301 128.976 45.3474C129.174 45.2646 129.342 45.125 129.46 44.9462C129.577 44.7675 129.639 44.5578 129.638 44.3438C129.635 44.0611 129.522 43.7906 129.322 43.5907C129.122 43.3908 128.851 43.2775 128.569 43.275Z" fill="#231F20"/>
<path d="M135.581 45.8906C136.436 45.8906 137.128 45.1981 137.128 44.3437C137.128 43.4894 136.436 42.7969 135.581 42.7969C134.727 42.7969 134.034 43.4894 134.034 44.3437C134.034 45.1981 134.727 45.8906 135.581 45.8906Z" fill="#231F20"/>
<path d="M135.581 46.3594C135.183 46.3594 134.793 46.2412 134.461 46.0197C134.13 45.7982 133.872 45.4834 133.719 45.1151C133.566 44.7468 133.527 44.3415 133.604 43.9505C133.682 43.5595 133.874 43.2004 134.156 42.9185C134.438 42.6366 134.797 42.4446 135.188 42.3669C135.579 42.2891 135.984 42.329 136.353 42.4816C136.721 42.6341 137.036 42.8925 137.257 43.2239C137.479 43.5554 137.597 43.9451 137.597 44.3437C137.597 44.8783 137.384 45.391 137.006 45.769C136.628 46.147 136.116 46.3594 135.581 46.3594V46.3594ZM135.581 43.275C135.368 43.275 135.159 43.3385 134.981 43.4574C134.804 43.5763 134.666 43.7452 134.584 43.9427C134.503 44.1403 134.482 44.3575 134.525 44.5669C134.567 44.7763 134.671 44.9684 134.822 45.1188C134.974 45.2692 135.167 45.3711 135.377 45.4117C135.586 45.4522 135.804 45.4295 136 45.3465C136.197 45.2634 136.365 45.1238 136.482 44.9453C136.6 44.7667 136.661 44.5574 136.659 44.3437C136.657 44.0594 136.542 43.7876 136.34 43.5875C136.138 43.3873 135.866 43.275 135.581 43.275V43.275Z" fill="#231F20"/>
<path d="M127.022 115.669C126.898 115.669 126.778 115.619 126.69 115.531C126.603 115.444 126.553 115.324 126.553 115.2V49.0312C126.553 48.9069 126.603 48.7877 126.69 48.6998C126.778 48.6119 126.898 48.5625 127.022 48.5625C127.146 48.5625 127.265 48.6119 127.353 48.6998C127.441 48.7877 127.491 48.9069 127.491 49.0312V115.2C127.491 115.324 127.441 115.444 127.353 115.531C127.265 115.619 127.146 115.669 127.022 115.669Z" fill="#231F20"/>
<path d="M152.709 54.375H133.022C132.898 54.375 132.778 54.3256 132.69 54.2377C132.602 54.1498 132.553 54.0306 132.553 53.9062C132.553 53.7819 132.602 53.6627 132.69 53.5748C132.778 53.4869 132.898 53.4375 133.022 53.4375H152.709C152.834 53.4375 152.953 53.4869 153.041 53.5748C153.129 53.6627 153.178 53.7819 153.178 53.9062C153.178 54.0306 153.129 54.1498 153.041 54.2377C152.953 54.3256 152.834 54.375 152.709 54.375Z" fill="white"/>
<path d="M164.006 54.375H157.584C157.46 54.375 157.341 54.3256 157.253 54.2377C157.165 54.1498 157.116 54.0306 157.116 53.9062C157.116 53.7819 157.165 53.6627 157.253 53.5748C157.341 53.4869 157.46 53.4375 157.584 53.4375H164.006C164.131 53.4375 164.25 53.4869 164.338 53.5748C164.426 53.6627 164.475 53.7819 164.475 53.9062C164.475 54.0306 164.426 54.1498 164.338 54.2377C164.25 54.3256 164.131 54.375 164.006 54.375Z" fill="#231F20"/>
<path d="M181.444 54.375H167.859C167.735 54.375 167.616 54.3256 167.528 54.2377C167.44 54.1498 167.391 54.0306 167.391 53.9062C167.391 53.7819 167.44 53.6627 167.528 53.5748C167.616 53.4869 167.735 53.4375 167.859 53.4375H181.444C181.568 53.4375 181.687 53.4869 181.775 53.5748C181.863 53.6627 181.912 53.7819 181.912 53.9062C181.912 53.9678 181.9 54.0288 181.877 54.0856C181.853 54.1425 181.819 54.1942 181.775 54.2377C181.732 54.2812 181.68 54.3158 181.623 54.3393C181.566 54.3629 181.505 54.375 181.444 54.375Z" fill="#231F20"/>
<path d="M146.428 60.3H132.984C132.86 60.3 132.741 60.2506 132.653 60.1627C132.565 60.0748 132.516 59.9556 132.516 59.8312C132.516 59.7069 132.565 59.5877 132.653 59.4998C132.741 59.4119 132.86 59.3625 132.984 59.3625H146.428C146.552 59.3625 146.672 59.4119 146.76 59.4998C146.847 59.5877 146.897 59.7069 146.897 59.8312C146.894 59.9548 146.844 60.0726 146.757 60.16C146.67 60.2474 146.552 60.2976 146.428 60.3V60.3Z" fill="white"/>
<path d="M205.997 60.3H150.516C150.392 60.2976 150.274 60.2474 150.187 60.16C150.099 60.0726 150.049 59.9548 150.047 59.8312C150.047 59.7069 150.096 59.5877 150.184 59.4998C150.272 59.4119 150.391 59.3625 150.516 59.3625H205.997C206.121 59.3625 206.24 59.4119 206.328 59.4998C206.416 59.5877 206.466 59.7069 206.466 59.8312C206.466 59.8928 206.454 59.9538 206.43 60.0106C206.406 60.0675 206.372 60.1192 206.328 60.1627C206.285 60.2062 206.233 60.2407 206.176 60.2643C206.119 60.2879 206.058 60.3 205.997 60.3Z" fill="#231F20"/>
<path d="M237.319 60.3H210.234C210.11 60.3 209.991 60.2506 209.903 60.1627C209.815 60.0748 209.766 59.9556 209.766 59.8312C209.766 59.7069 209.815 59.5877 209.903 59.4998C209.991 59.4119 210.11 59.3625 210.234 59.3625H237.319C237.443 59.3625 237.562 59.4119 237.65 59.4998C237.738 59.5877 237.787 59.7069 237.787 59.8312C237.785 59.9548 237.735 60.0726 237.648 60.16C237.56 60.2474 237.442 60.2976 237.319 60.3Z" fill="white"/>
<path d="M181.444 65.9438H132.984C132.86 65.9438 132.741 65.8944 132.653 65.8065C132.565 65.7186 132.516 65.5993 132.516 65.475C132.516 65.3507 132.565 65.2315 132.653 65.1436C132.741 65.0556 132.86 65.0063 132.984 65.0063H181.444C181.568 65.0063 181.687 65.0556 181.775 65.1436C181.863 65.2315 181.912 65.3507 181.912 65.475C181.912 65.5993 181.863 65.7186 181.775 65.8065C181.687 65.8944 181.568 65.9438 181.444 65.9438Z" fill="white"/>
<path d="M202.341 65.9438H185.681C185.557 65.9438 185.438 65.8944 185.35 65.8065C185.262 65.7186 185.213 65.5993 185.213 65.475C185.215 65.3514 185.265 65.2336 185.352 65.1462C185.44 65.0588 185.558 65.0087 185.681 65.0063H202.341C202.465 65.0063 202.584 65.0556 202.672 65.1436C202.76 65.2315 202.809 65.3507 202.809 65.475C202.809 65.5993 202.76 65.7186 202.672 65.8065C202.584 65.8944 202.465 65.9438 202.341 65.9438Z" fill="#231F20"/>
<path d="M139.688 76.1719H132.966C132.841 76.1719 132.722 76.1225 132.634 76.0346C132.546 75.9467 132.497 75.8275 132.497 75.7031C132.497 75.5788 132.546 75.4596 132.634 75.3717C132.722 75.2838 132.841 75.2344 132.966 75.2344H139.688C139.811 75.2368 139.929 75.2869 140.016 75.3743C140.104 75.4617 140.154 75.5796 140.156 75.7031C140.156 75.8275 140.107 75.9467 140.019 76.0346C139.931 76.1225 139.812 76.1719 139.688 76.1719Z" fill="white"/>
<path d="M160.791 76.1719H143.794C143.669 76.1719 143.55 76.1225 143.462 76.0346C143.374 75.9467 143.325 75.8275 143.325 75.7031C143.327 75.5796 143.378 75.4617 143.465 75.3743C143.552 75.2869 143.67 75.2368 143.794 75.2344H160.791C160.915 75.2344 161.034 75.2838 161.122 75.3717C161.21 75.4596 161.259 75.5788 161.259 75.7031C161.259 75.8275 161.21 75.9467 161.122 76.0346C161.034 76.1225 160.915 76.1719 160.791 76.1719Z" fill="#231F20"/>
<path d="M147.3 81.4406H132.984C132.86 81.4406 132.741 81.3912 132.653 81.3033C132.565 81.2154 132.516 81.0962 132.516 80.9719C132.516 80.8475 132.565 80.7283 132.653 80.6404C132.741 80.5525 132.86 80.5031 132.984 80.5031H147.3C147.424 80.5031 147.544 80.5525 147.631 80.6404C147.719 80.7283 147.769 80.8475 147.769 80.9719C147.769 81.0962 147.719 81.2154 147.631 81.3033C147.544 81.3912 147.424 81.4406 147.3 81.4406Z" fill="white"/>
<path d="M178.256 81.4406H150.516C150.392 81.4382 150.274 81.3881 150.187 81.3007C150.099 81.2133 150.049 81.0954 150.047 80.9719C150.047 80.8475 150.096 80.7283 150.184 80.6404C150.272 80.5525 150.391 80.5031 150.516 80.5031H178.256C178.381 80.5031 178.5 80.5525 178.588 80.6404C178.676 80.7283 178.725 80.8475 178.725 80.9719C178.725 81.0962 178.676 81.2154 178.588 81.3033C178.5 81.3912 178.381 81.4406 178.256 81.4406Z" fill="#231F20"/>
<path d="M197.175 81.4406H182.175C182.051 81.4382 181.934 81.3881 181.846 81.3007C181.759 81.2133 181.709 81.0954 181.706 80.9719C181.706 80.8475 181.756 80.7283 181.844 80.6404C181.931 80.5525 182.051 80.5031 182.175 80.5031H197.175C197.299 80.5031 197.419 80.5525 197.506 80.6404C197.594 80.7283 197.644 80.8475 197.644 80.9719C197.644 81.0962 197.594 81.2154 197.506 81.3033C197.419 81.3912 197.299 81.4406 197.175 81.4406Z" fill="white"/>
<path d="M153.347 87.0844H132.984C132.86 87.0844 132.741 87.035 132.653 86.9471C132.565 86.8592 132.516 86.74 132.516 86.6156C132.516 86.4913 132.565 86.3721 132.653 86.2842C132.741 86.1963 132.86 86.1469 132.984 86.1469H153.347C153.47 86.1493 153.588 86.1994 153.676 86.2868C153.763 86.3742 153.813 86.4921 153.816 86.6156C153.816 86.74 153.766 86.8592 153.678 86.9471C153.59 87.035 153.471 87.0844 153.347 87.0844Z" fill="white"/>
<path d="M191.531 87.0844H157.584C157.46 87.0844 157.341 87.035 157.253 86.9471C157.165 86.8592 157.116 86.74 157.116 86.6156C157.116 86.4913 157.165 86.3721 157.253 86.2842C157.341 86.1963 157.46 86.1469 157.584 86.1469H191.531C191.655 86.1493 191.773 86.1994 191.86 86.2868C191.947 86.3742 191.998 86.4921 192 86.6156C192 86.74 191.951 86.8592 191.863 86.9471C191.775 87.035 191.656 87.0844 191.531 87.0844Z" fill="#231F20"/>
<path d="M223.772 87.0844H196.397C196.273 87.0844 196.153 87.035 196.065 86.9471C195.978 86.8592 195.928 86.74 195.928 86.6156C195.931 86.4921 195.981 86.3742 196.068 86.2868C196.156 86.1994 196.273 86.1493 196.397 86.1469H223.772C223.896 86.1469 224.015 86.1963 224.103 86.2842C224.191 86.3721 224.241 86.4913 224.241 86.6156C224.241 86.74 224.191 86.8592 224.103 86.9471C224.015 87.035 223.896 87.0844 223.772 87.0844Z" fill="white"/>
<path d="M153.347 97.1719H132.984C132.86 97.1719 132.741 97.1225 132.653 97.0346C132.565 96.9467 132.516 96.8274 132.516 96.7031C132.516 96.5788 132.565 96.4596 132.653 96.3717C132.741 96.2838 132.86 96.2344 132.984 96.2344H153.347C153.471 96.2344 153.59 96.2838 153.678 96.3717C153.766 96.4596 153.816 96.5788 153.816 96.7031C153.813 96.8267 153.763 96.9445 153.676 97.0319C153.588 97.1193 153.47 97.1695 153.347 97.1719Z" fill="white"/>
<path d="M164.391 97.1719H157.219C157.094 97.1719 156.975 97.1225 156.887 97.0346C156.799 96.9467 156.75 96.8274 156.75 96.7031C156.75 96.5788 156.799 96.4596 156.887 96.3717C156.975 96.2838 157.094 96.2344 157.219 96.2344H164.391C164.515 96.2344 164.634 96.2838 164.722 96.3717C164.81 96.4596 164.859 96.5788 164.859 96.7031C164.857 96.8267 164.807 96.9445 164.719 97.0319C164.632 97.1193 164.514 97.1695 164.391 97.1719Z" fill="#231F20"/>
<path d="M182.175 97.1719H167.859C167.735 97.1719 167.616 97.1225 167.528 97.0346C167.44 96.9467 167.391 96.8274 167.391 96.7031C167.391 96.5788 167.44 96.4596 167.528 96.3717C167.616 96.2838 167.735 96.2344 167.859 96.2344H182.175C182.299 96.2344 182.419 96.2838 182.506 96.3717C182.594 96.4596 182.644 96.5788 182.644 96.7031C182.644 96.8274 182.594 96.9467 182.506 97.0346C182.419 97.1225 182.299 97.1719 182.175 97.1719Z" fill="#231F20"/>
<path d="M146.428 102.431H132.984C132.86 102.431 132.741 102.382 132.653 102.294C132.565 102.206 132.516 102.087 132.516 101.962C132.516 101.838 132.565 101.719 132.653 101.631C132.741 101.543 132.86 101.494 132.984 101.494H146.428C146.552 101.494 146.672 101.543 146.76 101.631C146.847 101.719 146.897 101.838 146.897 101.962C146.894 102.086 146.844 102.204 146.757 102.291C146.67 102.379 146.552 102.429 146.428 102.431Z" fill="white"/>
<path d="M205.997 102.431H149.934C149.81 102.431 149.691 102.382 149.603 102.294C149.515 102.206 149.466 102.087 149.466 101.962C149.466 101.838 149.515 101.719 149.603 101.631C149.691 101.543 149.81 101.494 149.934 101.494H205.997C206.121 101.494 206.24 101.543 206.328 101.631C206.416 101.719 206.466 101.838 206.466 101.962C206.466 102.024 206.454 102.085 206.43 102.142C206.406 102.199 206.372 102.25 206.328 102.294C206.285 102.337 206.233 102.372 206.176 102.396C206.119 102.419 206.058 102.431 205.997 102.431Z" fill="#231F20"/>
<path d="M239.062 102.431H210.234C210.11 102.431 209.991 102.382 209.903 102.294C209.815 102.206 209.766 102.087 209.766 101.962C209.766 101.838 209.815 101.719 209.903 101.631C209.991 101.543 210.11 101.494 210.234 101.494H239.062C239.187 101.494 239.306 101.543 239.394 101.631C239.482 101.719 239.531 101.838 239.531 101.962C239.529 102.086 239.479 102.204 239.391 102.291C239.304 102.379 239.186 102.429 239.062 102.431Z" fill="#231F20"/>
<path d="M181.444 108.319H131.916C131.791 108.319 131.672 108.269 131.584 108.181C131.496 108.094 131.447 107.974 131.447 107.85C131.447 107.726 131.496 107.606 131.584 107.519C131.672 107.431 131.791 107.381 131.916 107.381H181.444C181.568 107.381 181.687 107.431 181.775 107.519C181.863 107.606 181.913 107.726 181.913 107.85C181.913 107.912 181.9 107.973 181.877 108.029C181.853 108.086 181.819 108.138 181.775 108.181C181.732 108.225 181.68 108.26 181.623 108.283C181.566 108.307 181.505 108.319 181.444 108.319Z" fill="white"/>
<path d="M200.878 108.319H185.681C185.557 108.319 185.438 108.269 185.35 108.181C185.262 108.094 185.213 107.974 185.213 107.85C185.215 107.726 185.265 107.609 185.352 107.521C185.44 107.434 185.558 107.384 185.681 107.381H200.878C201.002 107.381 201.122 107.431 201.21 107.519C201.298 107.606 201.347 107.726 201.347 107.85C201.347 107.974 201.298 108.094 201.21 108.181C201.122 108.269 201.002 108.319 200.878 108.319Z" fill="#231F20"/>
<path d="M121.172 55.7906C122.021 55.7906 122.709 55.1022 122.709 54.2531C122.709 53.404 122.021 52.7156 121.172 52.7156C120.323 52.7156 119.634 53.404 119.634 54.2531C119.634 55.1022 120.323 55.7906 121.172 55.7906Z" fill="white"/>
<path d="M121.172 61.3688C122.021 61.3688 122.709 60.6804 122.709 59.8313C122.709 58.9821 122.021 58.2938 121.172 58.2938C120.323 58.2938 119.634 58.9821 119.634 59.8313C119.634 60.6804 120.323 61.3688 121.172 61.3688Z" fill="white"/>
<path d="M121.172 66.9469C122.021 66.9469 122.709 66.2585 122.709 65.4094C122.709 64.5602 122.021 63.8719 121.172 63.8719C120.323 63.8719 119.634 64.5602 119.634 65.4094C119.634 66.2585 120.323 66.9469 121.172 66.9469Z" fill="white"/>
<path d="M121.172 77.3437C122.021 77.3437 122.709 76.6554 122.709 75.8062C122.709 74.9571 122.021 74.2687 121.172 74.2687C120.323 74.2687 119.634 74.9571 119.634 75.8062C119.634 76.6554 120.323 77.3437 121.172 77.3437Z" fill="white"/>
<path d="M121.172 82.9219C122.021 82.9219 122.709 82.2335 122.709 81.3844C122.709 80.5352 122.021 79.8469 121.172 79.8469C120.323 79.8469 119.634 80.5352 119.634 81.3844C119.634 82.2335 120.323 82.9219 121.172 82.9219Z" fill="white"/>
<path d="M121.172 88.5C122.021 88.5 122.709 87.8116 122.709 86.9625C122.709 86.1134 122.021 85.425 121.172 85.425C120.323 85.425 119.634 86.1134 119.634 86.9625C119.634 87.8116 120.323 88.5 121.172 88.5Z" fill="white"/>
<path d="M121.172 98.2406C122.021 98.2406 122.709 97.5523 122.709 96.7031C122.709 95.854 122.021 95.1656 121.172 95.1656C120.323 95.1656 119.634 95.854 119.634 96.7031C119.634 97.5523 120.323 98.2406 121.172 98.2406Z" fill="white"/>
<path d="M121.172 103.819C122.021 103.819 122.709 103.13 122.709 102.281C122.709 101.432 122.021 100.744 121.172 100.744C120.323 100.744 119.634 101.432 119.634 102.281C119.634 103.13 120.323 103.819 121.172 103.819Z" fill="white"/>
<path d="M121.172 109.387C122.021 109.387 122.709 108.699 122.709 107.85C122.709 107.001 122.021 106.312 121.172 106.312C120.323 106.312 119.634 107.001 119.634 107.85C119.634 108.699 120.323 109.387 121.172 109.387Z" fill="white"/>
<path d="M93.9656 44.0625H55.9406V78.0094H93.9656V44.0625Z" fill="white"/>
<path d="M93.9656 78.4781H55.9406C55.8163 78.4781 55.6971 78.4287 55.6092 78.3408C55.5213 78.2529 55.4719 78.1337 55.4719 78.0094V44.0625C55.4719 43.9382 55.5213 43.819 55.6092 43.731C55.6971 43.6431 55.8163 43.5938 55.9406 43.5938H93.9656C94.0892 43.5962 94.207 43.6463 94.2944 43.7337C94.3818 43.8211 94.432 43.9389 94.4344 44.0625V78.0094C94.4344 78.1337 94.385 78.2529 94.2971 78.3408C94.2092 78.4287 94.0899 78.4781 93.9656 78.4781ZM56.4094 77.5406H93.4969V44.5313H56.4094V77.5406Z" fill="#D1D3D4"/>
<path d="M68.2219 67.9406C68.1073 67.9392 67.9973 67.8958 67.9125 67.8187L61.2657 61.9594C61.1707 61.8718 61.1135 61.7508 61.1063 61.6219C61.1051 61.4967 61.1521 61.3758 61.2375 61.2844L67.8844 54.2812C67.928 54.2373 67.9798 54.2024 68.0369 54.1786C68.0941 54.1548 68.1553 54.1426 68.2172 54.1426C68.2791 54.1426 68.3404 54.1548 68.3975 54.1786C68.4546 54.2024 68.5065 54.2373 68.55 54.2812C68.5937 54.324 68.6284 54.3751 68.652 54.4314C68.6757 54.4877 68.6879 54.5482 68.6879 54.6094C68.6879 54.6705 68.6757 54.731 68.652 54.7873C68.6284 54.8437 68.5937 54.8947 68.55 54.9375L62.25 61.575L68.5313 67.1156C68.6243 67.1986 68.6813 67.3146 68.69 67.4389C68.6988 67.5632 68.6586 67.6861 68.5782 67.7812C68.533 67.8309 68.478 67.8707 68.4167 67.8981C68.3554 67.9255 68.2891 67.94 68.2219 67.9406V67.9406Z" fill="#D1D3D4"/>
<path d="M80.3719 67.9406C80.2749 67.9436 80.1793 67.9164 80.0984 67.8627C80.0175 67.809 79.9553 67.7316 79.9203 67.641C79.8853 67.5505 79.8793 67.4513 79.9031 67.3572C79.9269 67.2631 79.9793 67.1787 80.0531 67.1156L86.3344 61.575L80.025 54.9281C79.9814 54.8854 79.9467 54.8343 79.923 54.778C79.8993 54.7216 79.8871 54.6611 79.8871 54.6C79.8871 54.5389 79.8993 54.4784 79.923 54.422C79.9467 54.3657 79.9814 54.3146 80.025 54.2719C80.1142 54.1854 80.2336 54.137 80.3578 54.137C80.4821 54.137 80.6014 54.1854 80.6906 54.2719L87.3375 61.275C87.3804 61.3196 87.4134 61.3726 87.4344 61.4308C87.4554 61.4889 87.4639 61.5508 87.4594 61.6125C87.4597 61.6762 87.4465 61.7392 87.4206 61.7973C87.3948 61.8555 87.3568 61.9076 87.3094 61.95L80.6625 67.8094C80.584 67.8857 80.4811 67.9322 80.3719 67.9406V67.9406Z" fill="#D1D3D4"/>
<path d="M69.975 69.7688C69.8995 69.7692 69.8251 69.7498 69.7594 69.7125C69.7047 69.6848 69.656 69.6464 69.6163 69.5996C69.5767 69.5528 69.5468 69.4985 69.5284 69.44C69.5101 69.3814 69.5036 69.3198 69.5095 69.2587C69.5153 69.1977 69.5334 69.1384 69.5625 69.0844L77.8125 53.2219C77.8388 53.1633 77.8769 53.1107 77.9244 53.0674C77.9719 53.0241 78.0278 52.991 78.0886 52.9703C78.1495 52.9495 78.2139 52.9414 78.278 52.9466C78.342 52.9518 78.4043 52.9701 78.461 53.0004C78.5177 53.0307 78.5675 53.0723 78.6075 53.1226C78.6474 53.173 78.6765 53.231 78.6931 53.2931C78.7096 53.3552 78.7133 53.42 78.7037 53.4836C78.6941 53.5471 78.6716 53.608 78.6375 53.6625L70.3875 69.5156C70.3483 69.5914 70.2892 69.6549 70.2165 69.6995C70.1438 69.7442 70.0603 69.7681 69.975 69.7688Z" fill="#D1D3D4"/>
<path d="M333.872 45.7125H275.072V132.394H333.872V45.7125Z" fill="white"/>
<path d="M333.863 132.862H275.072C274.948 132.862 274.828 132.813 274.74 132.725C274.653 132.637 274.603 132.518 274.603 132.394V45.7125C274.603 45.5882 274.653 45.4689 274.74 45.381C274.828 45.2931 274.948 45.2437 275.072 45.2437H333.863C333.987 45.2437 334.106 45.2931 334.194 45.381C334.282 45.4689 334.331 45.5882 334.331 45.7125V132.394C334.331 132.518 334.282 132.637 334.194 132.725C334.106 132.813 333.987 132.862 333.863 132.862ZM275.541 131.925H333.394V46.1812H275.541V131.925Z" fill="#D1D3D4"/>
<path d="M333.863 51.9H275.072C274.948 51.9 274.828 51.8506 274.74 51.7627C274.653 51.6748 274.603 51.5556 274.603 51.4312C274.603 51.3069 274.653 51.1877 274.74 51.0998C274.828 51.0119 274.948 50.9625 275.072 50.9625H333.863C333.987 50.9625 334.106 51.0119 334.194 51.0998C334.282 51.1877 334.331 51.3069 334.331 51.4312C334.331 51.5556 334.282 51.6748 334.194 51.7627C334.106 51.8506 333.987 51.9 333.863 51.9Z" fill="#D1D3D4"/>
<path d="M301.575 67.7625H282.947C282.823 67.7625 282.703 67.7131 282.615 67.6252C282.528 67.5373 282.478 67.4181 282.478 67.2937V56.8687C282.478 56.7444 282.528 56.6252 282.615 56.5373C282.703 56.4494 282.823 56.4 282.947 56.4H301.575C301.699 56.4 301.819 56.4494 301.906 56.5373C301.994 56.6252 302.044 56.7444 302.044 56.8687V67.2937C302.044 67.4181 301.994 67.5373 301.906 67.6252C301.819 67.7131 301.699 67.7625 301.575 67.7625ZM283.416 66.825H301.106V57.3375H283.416V66.825Z" fill="#D1D3D4"/>
<path d="M327.778 92.0719H309.15C309.026 92.0719 308.906 92.0225 308.819 91.9346C308.731 91.8467 308.681 91.7275 308.681 91.6031V81.1781C308.681 81.0538 308.731 80.9346 308.819 80.8467C308.906 80.7588 309.026 80.7094 309.15 80.7094H327.778C327.902 80.7094 328.022 80.7588 328.11 80.8467C328.197 80.9346 328.247 81.0538 328.247 81.1781V91.6031C328.247 91.7275 328.197 91.8467 328.11 91.9346C328.022 92.0225 327.902 92.0719 327.778 92.0719ZM309.619 91.1344H327.309V81.6469H309.619V91.1344Z" fill="#D1D3D4"/>
<path d="M301.575 97.2844H282.947C282.823 97.2844 282.703 97.235 282.615 97.1471C282.528 97.0592 282.478 96.9399 282.478 96.8156V86.3906C282.478 86.2663 282.528 86.1471 282.615 86.0592C282.703 85.9713 282.823 85.9219 282.947 85.9219H301.575C301.699 85.9243 301.816 85.9744 301.904 86.0618C301.991 86.1492 302.041 86.2671 302.044 86.3906V96.8156C302.044 96.9399 301.994 97.0592 301.906 97.1471C301.819 97.235 301.699 97.2844 301.575 97.2844V97.2844ZM283.416 96.3469H301.106V86.8594H283.416V96.3469Z" fill="#D1D3D4"/>
<path d="M315.572 124.688H296.944C296.819 124.688 296.7 124.638 296.612 124.55C296.524 124.462 296.475 124.343 296.475 124.219V113.813C296.475 113.688 296.524 113.569 296.612 113.481C296.7 113.393 296.819 113.344 296.944 113.344H315.572C315.695 113.346 315.813 113.396 315.901 113.484C315.988 113.571 316.038 113.689 316.041 113.813V124.238C316.036 124.359 315.984 124.473 315.897 124.557C315.809 124.641 315.693 124.688 315.572 124.688ZM297.412 123.75H315.103V114.281H297.412V123.75Z" fill="#D1D3D4"/>
<path d="M318.469 81.6469C318.344 81.6469 318.225 81.5975 318.137 81.5096C318.049 81.4217 318 81.3025 318 81.1781V75.7969H292.256C292.132 75.7969 292.013 75.7475 291.925 75.6596C291.837 75.5717 291.787 75.4525 291.787 75.3281V67.2938C291.787 67.1694 291.837 67.0502 291.925 66.9623C292.013 66.8744 292.132 66.825 292.256 66.825C292.381 66.825 292.5 66.8744 292.588 66.9623C292.676 67.0502 292.725 67.1694 292.725 67.2938V74.8594H318.469C318.592 74.8618 318.71 74.912 318.798 74.9993C318.885 75.0867 318.935 75.2046 318.938 75.3281V81.1781C318.938 81.2397 318.925 81.3007 318.902 81.3575C318.878 81.4144 318.844 81.4661 318.8 81.5096C318.757 81.5531 318.705 81.5877 318.648 81.6112C318.591 81.6348 318.53 81.6469 318.469 81.6469Z" fill="#D1D3D4"/>
<path d="M292.256 86.8594C292.132 86.8594 292.013 86.81 291.925 86.7221C291.837 86.6342 291.787 86.5149 291.787 86.3906V75.3281C291.79 75.2046 291.84 75.0867 291.927 74.9993C292.015 74.9119 292.133 74.8618 292.256 74.8594C292.381 74.8594 292.5 74.9088 292.588 74.9967C292.676 75.0846 292.725 75.2038 292.725 75.3281V86.3906C292.725 86.4522 292.713 86.5131 292.689 86.57C292.666 86.6269 292.631 86.6786 292.588 86.7221C292.544 86.7656 292.492 86.8001 292.436 86.8237C292.379 86.8472 292.318 86.8594 292.256 86.8594Z" fill="#D1D3D4"/>
<path d="M307.041 113.803C306.916 113.803 306.797 113.754 306.709 113.666C306.621 113.578 306.572 113.459 306.572 113.334V106.528H292.256C292.132 106.528 292.013 106.479 291.925 106.391C291.837 106.303 291.787 106.184 291.787 106.059V96.8156C291.79 96.692 291.84 96.5742 291.927 96.4868C292.015 96.3994 292.133 96.3493 292.256 96.3469C292.381 96.3469 292.5 96.3962 292.588 96.4842C292.676 96.5721 292.725 96.6913 292.725 96.8156V105.591H307.041C307.165 105.591 307.284 105.64 307.372 105.728C307.46 105.816 307.509 105.935 307.509 106.059V113.334C307.509 113.459 307.46 113.578 307.372 113.666C307.284 113.754 307.165 113.803 307.041 113.803Z" fill="#D1D3D4"/>
<path d="M93.9656 49.0969H55.9406C55.8163 49.0969 55.6971 49.0475 55.6092 48.9596C55.5213 48.8717 55.4719 48.7524 55.4719 48.6281C55.4719 48.5038 55.5213 48.3846 55.6092 48.2967C55.6971 48.2087 55.8163 48.1594 55.9406 48.1594H93.9656C94.0892 48.1618 94.207 48.2119 94.2944 48.2993C94.3818 48.3867 94.432 48.5045 94.4344 48.6281C94.4344 48.7524 94.385 48.8717 94.2971 48.9596C94.2092 49.0475 94.0899 49.0969 93.9656 49.0969Z" fill="#D1D3D4"/>
<path d="M99.7219 98.3156H41.1375V159.3H99.7219V98.3156Z" fill="white"/>
<path d="M99.7125 159.769H41.1375C41.0132 159.769 40.894 159.719 40.8061 159.631C40.7181 159.544 40.6688 159.424 40.6688 159.3V98.3625C40.6688 98.2382 40.7181 98.1189 40.8061 98.031C40.894 97.9431 41.0132 97.8937 41.1375 97.8937H99.7125C99.8368 97.8937 99.9561 97.9431 100.044 98.031C100.132 98.1189 100.181 98.2382 100.181 98.3625V159.3C100.181 159.424 100.132 159.544 100.044 159.631C99.9561 159.719 99.8368 159.769 99.7125 159.769ZM41.5875 158.831H99.225V98.8312H41.6063L41.5875 158.831Z" fill="#D1D3D4"/>
<path d="M99.7125 104.812H41.1375C41.0132 104.812 40.894 104.763 40.8061 104.675C40.7181 104.587 40.6688 104.468 40.6688 104.344C40.6688 104.219 40.7181 104.1 40.8061 104.012C40.894 103.924 41.0132 103.875 41.1375 103.875H99.7125C99.8368 103.875 99.9561 103.924 100.044 104.012C100.132 104.1 100.181 104.219 100.181 104.344C100.181 104.468 100.132 104.587 100.044 104.675C99.9561 104.763 99.8368 104.812 99.7125 104.812Z" fill="#D1D3D4"/>
<path d="M53.4375 109.688H46.2656C46.1413 109.688 46.0221 109.638 45.9342 109.55C45.8463 109.462 45.7969 109.343 45.7969 109.219C45.7969 109.094 45.8463 108.975 45.9342 108.887C46.0221 108.799 46.1413 108.75 46.2656 108.75H53.4375C53.5618 108.75 53.6811 108.799 53.769 108.887C53.8569 108.975 53.9063 109.094 53.9063 109.219C53.9063 109.343 53.8569 109.462 53.769 109.55C53.6811 109.638 53.5618 109.688 53.4375 109.688Z" fill="#D1D3D4"/>
<path d="M71.4656 109.688H57.1875C57.0632 109.688 56.944 109.638 56.856 109.55C56.7681 109.462 56.7188 109.343 56.7188 109.219C56.7212 109.095 56.7713 108.977 56.8587 108.89C56.9461 108.803 57.0639 108.752 57.1875 108.75H71.4656C71.5899 108.75 71.7092 108.799 71.7971 108.887C71.885 108.975 71.9344 109.094 71.9344 109.219C71.9344 109.343 71.885 109.462 71.7971 109.55C71.7092 109.638 71.5899 109.688 71.4656 109.688Z" fill="#D1D3D4"/>
<path d="M75.7687 115.116H61.4906C61.3663 115.116 61.2471 115.066 61.1592 114.978C61.0712 114.89 61.0219 114.771 61.0219 114.647C61.0219 114.523 61.0712 114.403 61.1592 114.315C61.2471 114.228 61.3663 114.178 61.4906 114.178H75.7687C75.893 114.178 76.0123 114.228 76.1002 114.315C76.1881 114.403 76.2375 114.523 76.2375 114.647C76.2375 114.771 76.1881 114.89 76.1002 114.978C76.0123 115.066 75.893 115.116 75.7687 115.116Z" fill="#D1D3D4"/>
<path d="M55.1063 115.116H47.9438C47.8195 115.116 47.7002 115.066 47.6123 114.978C47.5244 114.89 47.475 114.771 47.475 114.647C47.4774 114.523 47.5276 114.405 47.615 114.318C47.7024 114.231 47.8202 114.181 47.9438 114.178H55.1063C55.2299 114.181 55.3477 114.231 55.4351 114.318C55.5225 114.405 55.5726 114.523 55.575 114.647C55.575 114.771 55.5256 114.89 55.4377 114.978C55.3498 115.066 55.2306 115.116 55.1063 115.116Z" fill="#D1D3D4"/>
<path d="M55.3781 120.544H49.6219C49.4976 120.544 49.3783 120.494 49.2904 120.406C49.2025 120.319 49.1531 120.199 49.1531 120.075C49.1555 119.951 49.2057 119.834 49.2931 119.746C49.3805 119.659 49.4983 119.609 49.6219 119.606H55.3781C55.5017 119.609 55.6195 119.659 55.7069 119.746C55.7943 119.834 55.8445 119.951 55.8469 120.075C55.8469 120.199 55.7975 120.319 55.7096 120.406C55.6217 120.494 55.5025 120.544 55.3781 120.544Z" fill="#D1D3D4"/>
<path d="M78.3188 120.544H60.45C60.3257 120.544 60.2065 120.494 60.1186 120.406C60.0307 120.319 59.9813 120.199 59.9813 120.075C59.9813 119.951 60.0307 119.831 60.1186 119.744C60.2065 119.656 60.3257 119.606 60.45 119.606H78.3188C78.4431 119.606 78.5623 119.656 78.6502 119.744C78.7381 119.831 78.7875 119.951 78.7875 120.075C78.7875 120.199 78.7381 120.319 78.6502 120.406C78.5623 120.494 78.4431 120.544 78.3188 120.544Z" fill="#D1D3D4"/>
<path d="M58.4625 125.972H51.3094C51.1851 125.972 51.0658 125.922 50.9779 125.835C50.89 125.747 50.8406 125.627 50.8406 125.503C50.8406 125.379 50.89 125.26 50.9779 125.172C51.0658 125.084 51.1851 125.034 51.3094 125.034H58.4625C58.5868 125.034 58.7061 125.084 58.794 125.172C58.8819 125.26 58.9313 125.379 58.9313 125.503C58.9313 125.627 58.8819 125.747 58.794 125.835C58.7061 125.922 58.5868 125.972 58.4625 125.972Z" fill="#D1D3D4"/>
<path d="M82.0219 125.972H60.7687C60.6444 125.972 60.5252 125.922 60.4373 125.835C60.3494 125.747 60.3 125.627 60.3 125.503C60.3 125.379 60.3494 125.26 60.4373 125.172C60.5252 125.084 60.6444 125.034 60.7687 125.034H82.0219C82.1454 125.037 82.2633 125.087 82.3507 125.174C82.4381 125.262 82.4882 125.38 82.4906 125.503C82.4906 125.627 82.4412 125.747 82.3533 125.835C82.2654 125.922 82.1462 125.972 82.0219 125.972Z" fill="#D1D3D4"/>
<path d="M56.5594 131.4H49.4062C49.2819 131.4 49.1627 131.351 49.0748 131.263C48.9869 131.175 48.9375 131.056 48.9375 130.931C48.9375 130.807 48.9869 130.688 49.0748 130.6C49.1627 130.512 49.2819 130.463 49.4062 130.463H56.5594C56.6837 130.463 56.8029 130.512 56.8908 130.6C56.9787 130.688 57.0281 130.807 57.0281 130.931C57.0281 131.056 56.9787 131.175 56.8908 131.263C56.8029 131.351 56.6837 131.4 56.5594 131.4Z" fill="#D1D3D4"/>
<path d="M70.8282 131.4H59.3063C59.182 131.4 59.0627 131.351 58.9748 131.263C58.8869 131.175 58.8375 131.056 58.8375 130.931C58.8375 130.807 58.8869 130.688 58.9748 130.6C59.0627 130.512 59.182 130.463 59.3063 130.463H70.8282C70.9525 130.463 71.0717 130.512 71.1596 130.6C71.2475 130.688 71.2969 130.807 71.2969 130.931C71.2969 131.056 71.2475 131.175 71.1596 131.263C71.0717 131.351 70.9525 131.4 70.8282 131.4Z" fill="#D1D3D4"/>
<path d="M86.7562 131.4H75.2344C75.1101 131.4 74.9908 131.351 74.9029 131.263C74.815 131.175 74.7656 131.056 74.7656 130.931C74.7656 130.807 74.815 130.688 74.9029 130.6C74.9908 130.512 75.1101 130.463 75.2344 130.463H86.7562C86.8806 130.463 86.9998 130.512 87.0877 130.6C87.1756 130.688 87.225 130.807 87.225 130.931C87.225 131.056 87.1756 131.175 87.0877 131.263C86.9998 131.351 86.8806 131.4 86.7562 131.4Z" fill="#D1D3D4"/>
<path d="M51.8719 136.875H49.4062C49.2819 136.875 49.1627 136.826 49.0748 136.738C48.9869 136.65 48.9375 136.531 48.9375 136.406C48.9375 136.282 48.9869 136.163 49.0748 136.075C49.1627 135.987 49.2819 135.938 49.4062 135.938H51.8719C51.9962 135.938 52.1154 135.987 52.2033 136.075C52.2912 136.163 52.3406 136.282 52.3406 136.406C52.3406 136.531 52.2912 136.65 52.2033 136.738C52.1154 136.826 51.9962 136.875 51.8719 136.875Z" fill="#D1D3D4"/>
<path d="M70.8281 136.875H56.0719C55.9476 136.875 55.8284 136.826 55.7404 136.738C55.6525 136.65 55.6031 136.531 55.6031 136.406C55.6055 136.283 55.6557 136.165 55.7431 136.077C55.8305 135.99 55.9483 135.94 56.0719 135.938H70.8281C70.9525 135.938 71.0717 135.987 71.1596 136.075C71.2475 136.163 71.2969 136.282 71.2969 136.406C71.2969 136.531 71.2475 136.65 71.1596 136.738C71.0717 136.826 70.9525 136.875 70.8281 136.875Z" fill="#D1D3D4"/>
<path d="M76.6406 136.875H72.525C72.4007 136.875 72.2815 136.826 72.1936 136.738C72.1057 136.65 72.0563 136.531 72.0563 136.406C72.0563 136.282 72.1057 136.163 72.1936 136.075C72.2815 135.987 72.4007 135.938 72.525 135.938H76.6406C76.765 135.938 76.8842 135.987 76.9721 136.075C77.06 136.163 77.1094 136.282 77.1094 136.406C77.1094 136.531 77.06 136.65 76.9721 136.738C76.8842 136.826 76.765 136.875 76.6406 136.875Z" fill="#D1D3D4"/>
<path d="M53.2781 142.256H49.4062C49.2819 142.256 49.1627 142.207 49.0748 142.119C48.9869 142.031 48.9375 141.912 48.9375 141.787C48.9375 141.663 48.9869 141.544 49.0748 141.456C49.1627 141.368 49.2819 141.319 49.4062 141.319H53.2781C53.4024 141.319 53.5217 141.368 53.6096 141.456C53.6975 141.544 53.7469 141.663 53.7469 141.787C53.7469 141.912 53.6975 142.031 53.6096 142.119C53.5217 142.207 53.4024 142.256 53.2781 142.256Z" fill="#D1D3D4"/>
<path d="M74.4375 142.256H56.925C56.8007 142.256 56.6814 142.207 56.5935 142.119C56.5056 142.031 56.4562 141.912 56.4562 141.787C56.4586 141.664 56.5088 141.546 56.5962 141.459C56.6836 141.371 56.8014 141.321 56.925 141.319H74.4375C74.5618 141.319 74.681 141.368 74.7689 141.456C74.8569 141.544 74.9062 141.663 74.9062 141.787C74.9062 141.912 74.8569 142.031 74.7689 142.119C74.681 142.207 74.5618 142.256 74.4375 142.256Z" fill="#D1D3D4"/>
<path d="M83.325 142.256H76.1719C76.0476 142.256 75.9283 142.207 75.8404 142.119C75.7525 142.031 75.7031 141.912 75.7031 141.787C75.7031 141.663 75.7525 141.544 75.8404 141.456C75.9283 141.368 76.0476 141.319 76.1719 141.319H83.325C83.4493 141.319 83.5685 141.368 83.6565 141.456C83.7444 141.544 83.7937 141.663 83.7937 141.787C83.7937 141.912 83.7444 142.031 83.6565 142.119C83.5685 142.207 83.4493 142.256 83.325 142.256Z" fill="#D1D3D4"/>
<path d="M51.5625 147.684H47.7281C47.6038 147.684 47.4846 147.635 47.3967 147.547C47.3088 147.459 47.2594 147.34 47.2594 147.216C47.2594 147.091 47.3088 146.972 47.3967 146.884C47.4846 146.796 47.6038 146.747 47.7281 146.747H51.5625C51.6861 146.749 51.8039 146.799 51.8913 146.887C51.9787 146.974 52.0289 147.092 52.0313 147.216C52.0313 147.34 51.9819 147.459 51.894 147.547C51.8061 147.635 51.6868 147.684 51.5625 147.684Z" fill="#D1D3D4"/>
<path d="M72.525 147.684H55.9406C55.8163 147.684 55.6971 147.635 55.6092 147.547C55.5213 147.459 55.4719 147.34 55.4719 147.216C55.4743 147.092 55.5244 146.974 55.6118 146.887C55.6992 146.799 55.817 146.749 55.9406 146.747H72.525C72.6493 146.747 72.7685 146.796 72.8564 146.884C72.9444 146.972 72.9937 147.091 72.9937 147.216C72.9937 147.34 72.9444 147.459 72.8564 147.547C72.7685 147.635 72.6493 147.684 72.525 147.684Z" fill="#D1D3D4"/>
<path d="M54.8813 153.113H47.7281C47.6038 153.113 47.4846 153.063 47.3967 152.975C47.3088 152.887 47.2594 152.768 47.2594 152.644C47.2594 152.519 47.3088 152.4 47.3967 152.312C47.4846 152.224 47.6038 152.175 47.7281 152.175H54.8813C55.0056 152.175 55.1248 152.224 55.2127 152.312C55.3006 152.4 55.35 152.519 55.35 152.644C55.35 152.768 55.3006 152.887 55.2127 152.975C55.1248 153.063 55.0056 153.113 54.8813 153.113Z" fill="#D1D3D4"/>
<path d="M94.5844 125.972H84.9094C84.785 125.972 84.6658 125.922 84.5779 125.835C84.49 125.747 84.4406 125.627 84.4406 125.503C84.4406 125.379 84.49 125.26 84.5779 125.172C84.6658 125.084 84.785 125.034 84.9094 125.034H94.5844C94.7087 125.034 94.8279 125.084 94.9158 125.172C95.0037 125.26 95.0531 125.379 95.0531 125.503C95.0531 125.627 95.0037 125.747 94.9158 125.835C94.8279 125.922 94.7087 125.972 94.5844 125.972Z" fill="#D1D3D4"/>
<path d="M80.1 109.687C75.2532 109.687 75.15 109.687 75.0938 109.687C74.9762 109.651 74.8778 109.569 74.8199 109.46C74.762 109.352 74.7492 109.224 74.7844 109.106C74.8151 108.998 74.8847 108.905 74.9797 108.844C75.0748 108.784 75.1888 108.76 75.3 108.778C75.8719 108.778 85.2375 108.778 91.425 108.778C91.5494 108.778 91.6686 108.828 91.7565 108.915C91.8444 109.003 91.8938 109.123 91.8938 109.247C91.8938 109.371 91.8444 109.49 91.7565 109.578C91.6686 109.666 91.5494 109.716 91.425 109.716C86.0907 109.687 82.5 109.687 80.1 109.687Z" fill="#D1D3D4"/>
<path d="M81.6844 147.684H74.4375C74.3132 147.684 74.194 147.635 74.106 147.547C74.0181 147.459 73.9688 147.34 73.9688 147.216C73.9712 147.092 74.0213 146.974 74.1087 146.887C74.1961 146.799 74.3139 146.749 74.4375 146.747H81.6844C81.8079 146.749 81.9258 146.799 82.0132 146.887C82.1006 146.974 82.1507 147.092 82.1531 147.216C82.1531 147.34 82.1037 147.459 82.0158 147.547C81.9279 147.635 81.8087 147.684 81.6844 147.684Z" fill="#D1D3D4"/>
<path d="M65.0719 153.113H59.7375C59.6132 153.113 59.4939 153.063 59.406 152.975C59.3181 152.887 59.2687 152.768 59.2687 152.644C59.2711 152.52 59.3213 152.402 59.4087 152.315C59.4961 152.228 59.6139 152.177 59.7375 152.175H65.0719C65.1954 152.177 65.3133 152.228 65.4007 152.315C65.4881 152.402 65.5382 152.52 65.5406 152.644C65.5406 152.768 65.4912 152.887 65.4033 152.975C65.3154 153.063 65.1962 153.113 65.0719 153.113Z" fill="#D1D3D4"/>
<path d="M79.7532 153.113H67.0875C66.9632 153.113 66.844 153.063 66.7561 152.975C66.6682 152.887 66.6188 152.768 66.6188 152.644C66.6212 152.52 66.6713 152.402 66.7587 152.315C66.8461 152.228 66.964 152.177 67.0875 152.175H79.7532C79.8767 152.177 79.9946 152.228 80.082 152.315C80.1694 152.402 80.2195 152.52 80.2219 152.644C80.2219 152.768 80.1725 152.887 80.0846 152.975C79.9967 153.063 79.8775 153.113 79.7532 153.113Z" fill="#D1D3D4"/>
<path d="M302.044 190.416C315.102 190.416 325.688 179.83 325.688 166.772C325.688 153.714 315.102 143.128 302.044 143.128C288.986 143.128 278.4 153.714 278.4 166.772C278.4 179.83 288.986 190.416 302.044 190.416Z" fill="white"/>
<path d="M302.044 190.884C297.275 190.884 292.613 189.47 288.648 186.821C284.682 184.171 281.592 180.405 279.767 175.999C277.942 171.593 277.464 166.745 278.395 162.068C279.325 157.39 281.621 153.094 284.994 149.722C288.366 146.35 292.662 144.053 297.34 143.123C302.017 142.192 306.865 142.67 311.271 144.495C315.677 146.32 319.443 149.41 322.093 153.376C324.742 157.341 326.156 162.003 326.156 166.772C326.149 173.165 323.606 179.293 319.086 183.814C314.565 188.334 308.437 190.877 302.044 190.884V190.884ZM302.044 143.606C297.46 143.606 292.979 144.966 289.167 147.513C285.356 150.06 282.386 153.68 280.632 157.915C278.878 162.15 278.42 166.81 279.315 171.306C280.21 175.802 282.418 179.931 285.66 183.172C288.902 186.412 293.032 188.619 297.528 189.512C302.024 190.405 306.684 189.945 310.919 188.189C315.153 186.434 318.772 183.462 321.318 179.65C323.863 175.837 325.221 171.356 325.219 166.772C325.211 160.629 322.767 154.739 318.422 150.396C314.077 146.053 308.187 143.611 302.044 143.606V143.606Z" fill="#231F20"/>
<path d="M312.429 184.04L312.438 184.035C313.548 183.391 313.926 181.968 313.282 180.857L310.431 175.943C309.787 174.832 308.364 174.454 307.253 175.099L307.245 175.103C306.134 175.748 305.756 177.17 306.401 178.281L309.252 183.195C309.896 184.306 311.319 184.684 312.429 184.04Z" fill="white"/>
<path d="M311.25 184.828C311.006 184.83 310.763 184.798 310.528 184.734C310.173 184.641 309.84 184.478 309.548 184.254C309.257 184.03 309.013 183.751 308.831 183.431L306.019 178.528C305.65 177.886 305.549 177.124 305.739 176.407C305.928 175.691 306.393 175.079 307.031 174.703C307.674 174.334 308.436 174.233 309.152 174.423C309.868 174.613 310.481 175.077 310.856 175.716L313.669 180.628C314.037 181.272 314.136 182.035 313.945 182.751C313.754 183.467 313.287 184.079 312.647 184.453C312.222 184.698 311.74 184.827 311.25 184.828V184.828ZM308.438 175.312C308.109 175.313 307.787 175.397 307.5 175.556C307.074 175.807 306.765 176.215 306.638 176.692C306.512 177.17 306.579 177.678 306.825 178.106L309.638 183.009C309.914 183.374 310.315 183.625 310.764 183.714C311.213 183.804 311.68 183.726 312.075 183.495C312.471 183.265 312.768 182.897 312.912 182.462C313.055 182.027 313.034 181.555 312.853 181.134L310.041 176.231C309.795 175.804 309.391 175.491 308.916 175.359C308.759 175.325 308.598 175.31 308.438 175.312V175.312Z" fill="#231F20"/>
<path d="M302.044 180.975C310.24 180.975 316.884 174.331 316.884 166.134C316.884 157.938 310.24 151.294 302.044 151.294C293.847 151.294 287.203 157.938 287.203 166.134C287.203 174.331 293.847 180.975 302.044 180.975Z" fill="white"/>
<path d="M302.072 181.453C300.739 181.453 299.413 181.28 298.125 180.937C296.178 180.426 294.353 179.534 292.753 178.313C291.154 177.091 289.812 175.565 288.806 173.822V173.822C287.116 170.906 286.435 167.515 286.869 164.173C287.303 160.831 288.827 157.725 291.206 155.338C293.585 152.951 296.684 151.415 300.025 150.969C303.365 150.523 306.759 151.192 309.681 152.871C312.603 154.551 314.888 157.147 316.184 160.258C317.479 163.369 317.712 166.821 316.846 170.078C315.98 173.335 314.064 176.215 311.394 178.271C308.725 180.328 305.451 181.446 302.081 181.453H302.072ZM302.072 151.772C299.55 151.774 297.074 152.441 294.891 153.704C292.709 154.968 290.897 156.783 289.639 158.969C288.381 161.154 287.721 163.633 287.724 166.154C287.728 168.676 288.395 171.152 289.659 173.334V173.334C290.922 175.52 292.738 177.334 294.925 178.594C297.111 179.855 299.591 180.518 302.115 180.516C304.639 180.513 307.118 179.847 309.302 178.583C311.486 177.318 313.299 175.501 314.559 173.314C315.818 171.126 316.479 168.646 316.475 166.122C316.471 163.598 315.803 161.12 314.537 158.936C313.271 156.753 311.453 154.941 309.265 153.683C307.077 152.426 304.596 151.766 302.072 151.772V151.772Z" fill="#231F20"/>
<path d="M302.044 178.312C308.77 178.312 314.222 172.86 314.222 166.134C314.222 159.409 308.77 153.956 302.044 153.956C295.318 153.956 289.866 159.409 289.866 166.134C289.866 172.86 295.318 178.312 302.044 178.312Z" fill="#231F20"/>
</svg>
